<?xml version="1.0" standalone="no"?>
<!DOCTYPE svg PUBLIC "-//W3C//DTD SVG 20010904//EN"
 "http://www.w3.org/TR/2001/REC-SVG-20010904/DTD/svg10.dtd">
<svg version="1.0" xmlns="http://www.w3.org/2000/svg"
 width="612.000000pt" height="612.000000pt" viewBox="0 0 612.000000 612.000000"
 preserveAspectRatio="xMidYMid meet">

<g transform="translate(0.000000,612.000000) scale(0.100000,-0.100000)"
fill="#000000" stroke="none">
<path d="M2896 5224 c-365 -72 -648 -349 -719 -704 -57 -282 -16 -553 145
-952 l43 -107 81 -40 c94 -47 133 -80 68 -57 -108 37 -151 29 -179 -34 -21
-46 -18 -61 40 -199 24 -57 27 -75 23 -142 -10 -175 -127 -305 -304 -341 -97
-19 -232 23 -306 96 -82 81 -118 179 -118 327 0 175 29 270 164 530 96 186
120 263 114 373 -5 101 -37 172 -115 256 -129 140 -326 169 -489 74 -60 -35
-131 -115 -162 -182 -64 -139 -8 -290 92 -248 44 18 51 45 31 107 -21 62 -14
103 24 156 31 43 90 73 143 73 80 0 160 -72 173 -155 12 -77 -71 -282 -219
-538 -195 -337 -253 -532 -226 -763 21 -186 91 -311 221 -395 39 -25 56 -30
82 -25 17 3 113 10 213 15 186 8 220 15 204 41 -7 11 -14 12 -32 3 -44 -21
-59 -23 -93 -9 -32 14 -55 41 -55 66 0 6 12 2 26 -9 36 -28 70 -26 99 5 l25
27 49 -49 c36 -36 53 -64 65 -103 22 -74 20 -191 -4 -286 -42 -164 -125 -245
-250 -245 -41 0 -56 5 -75 25 -51 50 -17 107 73 125 130 27 171 59 208 161 16
47 21 145 9 199 -6 28 -10 31 -34 26 -14 -3 -98 -10 -186 -16 -181 -12 -253
-27 -342 -71 -122 -62 -211 -188 -234 -335 -22 -137 29 -290 131 -394 138
-141 345 -184 519 -109 l46 19 1 88 c2 174 60 307 189 438 44 44 97 94 117
111 32 25 40 38 49 89 28 151 -32 322 -135 385 -17 10 -24 19 -16 19 8 0 39
-16 68 -37 l53 -36 32 23 c73 54 139 117 179 172 23 32 44 58 45 58 1 0 -2
-11 -7 -25 -33 -86 -85 -154 -169 -220 l-59 -47 19 -44 c22 -48 39 -170 31
-222 -2 -18 0 -32 6 -32 17 0 227 211 262 264 18 27 46 74 62 105 26 49 28 52
22 21 -19 -99 -84 -217 -165 -300 -24 -25 -108 -100 -186 -168 -156 -134 -219
-205 -265 -295 -121 -241 -77 -566 102 -746 161 -160 403 -197 618 -94 80 39
199 159 240 244 68 142 87 324 42 427 -27 62 -76 108 -125 118 -124 23 -170
-93 -59 -147 52 -24 63 -42 71 -108 12 -100 -59 -221 -156 -264 -140 -62 -310
26 -341 178 -28 136 38 225 271 364 216 129 282 190 359 334 l42 77 35 -73
c57 -115 181 -230 362 -337 225 -132 291 -212 278 -336 -9 -91 -72 -176 -156
-211 -44 -19 -138 -19 -182 -1 -94 40 -162 141 -162 243 0 84 13 110 67 133
69 31 86 83 41 127 -30 31 -80 33 -135 5 -74 -38 -110 -120 -110 -254 0 -323
243 -576 552 -576 148 0 268 49 368 150 114 115 171 265 171 444 0 249 -78
386 -346 611 -204 171 -280 267 -324 410 -28 89 -26 91 13 17 50 -92 108 -167
205 -260 123 -120 117 -120 123 -4 4 63 12 115 26 149 l20 52 -68 55 c-64 52
-128 133 -150 191 -17 44 -7 39 34 -18 38 -52 137 -144 187 -174 25 -15 28
-15 65 14 22 17 50 34 64 38 18 6 13 -1 -20 -27 -87 -66 -140 -221 -120 -357
l9 -64 111 -104 c170 -161 229 -279 236 -468 l3 -100 44 -22 c124 -62 308 -46
439 38 154 99 240 293 210 471 -27 153 -111 268 -243 331 -93 44 -146 55 -334
67 -83 6 -162 13 -177 16 -23 5 -29 2 -38 -21 -15 -40 -12 -148 6 -202 33 -98
84 -138 206 -163 62 -12 98 -44 98 -86 0 -33 -45 -64 -94 -64 -103 0 -175 50
-220 150 -82 183 -69 403 31 490 40 35 47 36 73 10 11 -11 29 -20 41 -20 23 0
60 18 71 34 5 6 8 2 8 -10 0 -24 -24 -48 -63 -63 -21 -8 -36 -7 -64 4 -28 12
-39 12 -50 3 -27 -22 14 -30 205 -39 103 -5 199 -12 214 -15 55 -13 189 99
241 202 103 203 84 503 -49 765 -20 40 -75 140 -122 223 -148 260 -212 414
-212 508 0 186 246 243 330 77 24 -45 25 -82 6 -137 -19 -53 -11 -77 29 -96
49 -23 81 -8 107 51 56 127 -42 313 -208 394 -64 32 -75 34 -169 34 -89 0
-106 -3 -157 -28 -137 -67 -236 -206 -246 -346 -7 -108 17 -185 128 -404 54
-105 108 -223 120 -262 27 -85 39 -292 21 -373 -26 -124 -96 -212 -209 -265
-121 -57 -262 -39 -376 48 -83 63 -144 205 -133 310 3 27 21 89 41 137 40 96
43 125 21 168 -28 54 -73 60 -180 24 l-40 -14 25 22 c14 11 57 36 97 55 l72
35 50 126 c111 285 149 440 158 643 14 309 -81 566 -279 755 -208 199 -518
293 -792 238z m-284 -2121 c57 -54 108 -127 108 -156 0 -17 -5 -19 -41 -14
-22 3 -56 16 -75 29 -38 25 -84 107 -84 148 0 56 26 53 92 -7z m986 7 c5 -81
-86 -179 -167 -180 -31 0 -33 2 -27 27 16 61 141 197 175 191 10 -2 17 -16 19
-38z"/>
<path d="M2004 3723 c-6 -21 -1 -31 25 -52 44 -37 41 -66 -23 -185 -70 -130
-120 -254 -141 -351 -65 -290 96 -498 319 -415 97 37 165 112 181 203 l7 37
-44 0 c-99 0 -205 58 -245 134 -30 56 -22 161 26 320 26 88 41 158 41 193 0
88 -41 143 -107 143 -27 0 -34 -5 -39 -27z"/>
<path d="M4021 3734 c-56 -40 -64 -122 -26 -259 74 -266 78 -300 46 -370 -21
-46 -79 -101 -129 -122 -19 -8 -62 -18 -96 -21 -61 -7 -61 -7 -58 -37 9 -85
83 -169 179 -205 73 -27 128 -26 191 6 95 47 143 141 143 278 0 136 -33 241
-142 456 -38 75 -69 146 -69 158 0 23 32 62 51 62 6 0 9 14 7 33 -3 29 -7 32
-38 35 -21 2 -45 -4 -59 -14z"/>
</g>
</svg>
